<svg width="35" height="35" viewBox="0 0 35 35" fill="none" xmlns="http://www.w3.org/2000/svg">
<rect width="35" height="35" rx="7" fill="white" fill-opacity="0.15"/>
<path d="M27.6926 12.9972C27.6817 12.1767 27.5281 11.3643 27.2387 10.5965C26.9877 9.94882 26.6044 9.36062 26.1133 8.86948C25.6221 8.37833 25.0339 7.99503 24.3863 7.74408C23.6283 7.45955 22.8275 7.3057 22.0181 7.28908C20.9759 7.24249 20.6455 7.22949 18 7.22949C15.3545 7.22949 15.0154 7.22949 13.9808 7.28908C13.1718 7.30582 12.3714 7.45967 11.6138 7.74408C10.966 7.99486 10.3777 8.37809 9.88653 8.86926C9.39536 9.36043 9.01213 9.94872 8.76135 10.5965C8.47625 11.3539 8.32273 12.1544 8.30743 12.9636C8.26085 14.0068 8.24677 14.3372 8.24677 16.9827C8.24677 19.6282 8.24677 19.9662 8.30743 21.0019C8.32368 21.8122 8.47643 22.6117 8.76135 23.3712C9.01255 24.0187 9.39607 24.6068 9.8874 25.0977C10.3787 25.5887 10.9671 25.9718 11.6148 26.2225C12.3704 26.5185 13.1709 26.6833 13.9819 26.71C15.0252 26.7566 15.3556 26.7707 18.0011 26.7707C20.6466 26.7707 20.9857 26.7707 22.0203 26.71C22.8297 26.6941 23.6305 26.5406 24.3884 26.2561C25.0359 26.0048 25.624 25.6214 26.1151 25.1303C26.6062 24.6392 26.9896 24.0512 27.2409 23.4037C27.5258 22.6453 27.6785 21.8458 27.6948 21.0344C27.7413 19.9922 27.7554 19.6618 27.7554 17.0152C27.7533 14.3697 27.7533 14.0339 27.6926 12.9972ZM17.9935 21.9856C15.2267 21.9856 12.9853 19.7442 12.9853 16.9773C12.9853 14.2105 15.2267 11.9691 17.9935 11.9691C19.3218 11.9691 20.5957 12.4967 21.5349 13.436C22.4741 14.3752 23.0018 15.6491 23.0018 16.9773C23.0018 18.3056 22.4741 19.5795 21.5349 20.5187C20.5957 21.4579 19.3218 21.9856 17.9935 21.9856ZM23.2011 12.9517C23.0477 12.9518 22.8958 12.9217 22.754 12.8631C22.6123 12.8044 22.4835 12.7184 22.375 12.6099C22.2665 12.5015 22.1805 12.3727 22.1219 12.2309C22.0632 12.0892 22.0331 11.9372 22.0333 11.7838C22.0333 11.6305 22.0635 11.4787 22.1221 11.3371C22.1808 11.1955 22.2668 11.0668 22.3752 10.9584C22.4836 10.85 22.6122 10.7641 22.7539 10.7054C22.8955 10.6467 23.0473 10.6165 23.2006 10.6165C23.3538 10.6165 23.5056 10.6467 23.6473 10.7054C23.7889 10.7641 23.9176 10.85 24.026 10.9584C24.1344 11.0668 24.2203 11.1955 24.279 11.3371C24.3377 11.4787 24.3678 11.6305 24.3678 11.7838C24.3678 12.4295 23.8457 12.9517 23.2011 12.9517Z" fill="#39E5F0"/>
<path d="M17.9935 20.2306C19.7902 20.2306 21.2468 18.7741 21.2468 16.9774C21.2468 15.1807 19.7902 13.7241 17.9935 13.7241C16.1968 13.7241 14.7403 15.1807 14.7403 16.9774C14.7403 18.7741 16.1968 20.2306 17.9935 20.2306Z" fill="#39E5F0"/>
</svg>
