<svg width="20" height="22" viewBox="0 0 20 22" fill="none" xmlns="http://www.w3.org/2000/svg">
<path d="M18 21.3461H2C1.46957 21.3461 0.960859 21.1192 0.585786 20.7153C0.210714 20.3114 0 19.7635 0 19.1923V7.39892C0.0166235 7.04293 0.113779 6.69672 0.283011 6.3904C0.452244 6.08409 0.688425 5.82695 0.971 5.64138L8.971 0.472148C9.28172 0.271507 9.63721 0.165527 9.9995 0.165527C10.3618 0.165527 10.7173 0.271507 11.028 0.472148L19.028 5.64138C19.629 6.0323 19.998 6.7323 20 7.4883V19.1923C20 19.7635 19.7893 20.3114 19.4142 20.7153C19.0391 21.1192 18.5304 21.3461 18 21.3461ZM2 8.28092V19.1923H18V8.28092L10 14.0241L2 8.28092ZM10 2.31907L3.316 6.63753L10 11.4363L16.683 6.63753L10 2.31907Z" fill="#39E5F0"/>
</svg>
