<svg width="22" height="25" viewBox="0 0 22 25" fill="none" xmlns="http://www.w3.org/2000/svg">
<path d="M9.55423 6.06724L6.17123 1.86185C5.78123 1.37724 5.06623 1.37939 4.61323 1.86831L1.83123 4.8697C1.00323 5.76247 0.766232 7.08816 1.24523 8.15108C4.10685 14.5318 8.88528 19.685 14.8062 22.7757C15.7922 23.2915 17.0222 23.0363 17.8502 22.1435L20.6582 19.1142C21.1132 18.6242 21.1142 17.8499 20.6602 17.4299L16.7402 13.806C16.3302 13.4269 15.6932 13.4765 15.2822 13.9202L13.9182 15.3912C13.8484 15.4701 13.7565 15.522 13.6566 15.5391C13.5567 15.5562 13.4543 15.5376 13.3652 15.486C11.1357 14.1033 9.28622 12.109 8.00523 9.70616C7.95726 9.61005 7.93989 9.49964 7.95578 9.39187C7.97168 9.2841 8.01996 9.18492 8.09323 9.10954L9.45323 7.64385C9.86523 7.19801 9.91023 6.50985 9.55423 6.06724Z" stroke="#39E5F0" stroke-width="2" stroke-linecap="round" stroke-linejoin="round"/>
</svg>
