<svg width="35" height="35" viewBox="0 0 35 35" fill="none" xmlns="http://www.w3.org/2000/svg">
<rect width="35" height="35" rx="7" fill="white" fill-opacity="0.15"/>
<path d="M29.9523 8.62002C29.0166 9.06539 28.0256 9.35951 27.0109 9.49297C28.0805 8.79791 28.8812 7.70676 29.2648 6.42158C28.2532 7.05684 27.1521 7.50805 26.0055 7.75723C25.2344 6.86521 24.213 6.27366 23.0997 6.07434C21.9864 5.87503 20.8435 6.07911 19.8483 6.6549C18.8531 7.2307 18.0612 8.14603 17.5955 9.25887C17.1298 10.3717 17.0163 11.6199 17.2727 12.8097C13.0125 12.594 9.23594 10.3778 6.71016 7.02977C6.25037 7.8764 6.0099 8.84158 6.01406 9.82371C6.01344 10.7367 6.22105 11.6358 6.61847 12.441C7.01589 13.2463 7.59081 13.9328 8.29219 14.4397C7.47939 14.4131 6.6843 14.1761 5.97344 13.7486V13.8154C5.97319 15.097 6.3822 16.3392 7.13114 17.3315C7.88008 18.3239 8.92288 19.0053 10.0828 19.2604C9.64343 19.3875 9.19073 19.4526 8.73594 19.4541C8.40703 19.4541 8.09297 19.4194 7.77969 19.3568C8.10979 20.4596 8.74922 21.4235 9.60899 22.1144C10.4688 22.8053 11.5061 23.1888 12.5766 23.2115C10.7628 24.7494 8.52483 25.5837 6.22109 25.5808C5.81305 25.5825 5.40528 25.5577 5 25.5063C7.35007 27.1367 10.0831 28.0023 12.8742 28C22.3016 28 27.4531 19.5454 27.4531 12.2235C27.4531 11.99 27.4531 11.7523 27.4367 11.5138C28.4444 10.7318 29.3129 9.75854 30 8.64117L29.9523 8.62002Z" fill="#39E5F0"/>
</svg>
